<svg width="574" height="75" viewBox="0 0 574 75" fill="none" xmlns="http://www.w3.org/2000/svg">
<path d="M312.011 59.3774C312.011 59.3774 303.011 59.8774 286.011 46.8774C270.832 35.2702 262.031 34.4252 260.32 34.3774M260.011 34.3774C260.011 34.3774 260.114 34.3716 260.32 34.3774M260.011 34.3774H260.32M260.011 34.3774C259.678 34.3197 259.345 34.2628 259.011 34.2069M260.011 34.3774L254.011 37.9193M179.511 34.3774C197.809 31.4773 229.087 29.1899 259.011 34.2069M179.511 34.3774C179.511 34.3774 179.614 34.3716 179.82 34.3774H179.511ZM179.511 34.3774C179.178 34.3197 178.845 34.2628 178.511 34.2069M179.511 34.3774C169.59 35.9498 156.841 37.9767 142.5 39.3728M102.511 40.8774C80.5057 40.1875 46.511 34.3774 46.511 34.3774M102.511 40.8774C102.845 40.9333 103.178 40.9901 103.511 41.0479M102.511 40.8774C92.011 26.5478 95.6143 26.8508 91.6143 19.8508C87.6143 12.8508 84.4191 13.1767 80.1143 15.3508C74.6665 18.1024 78.5947 25.8646 82.1143 30.8508C88.1143 39.3508 102.511 40.8774 102.511 40.8774ZM102.511 40.8774C94.1304 34.8859 93.083 37.2604 85.1143 26.3508M102.511 40.8774C116.5 41.3159 130.096 40.5803 142.5 39.3728M46.511 34.3774C30.7232 26.6751 29.6531 25.9864 21.011 21.3773C13.5109 17.3773 0.569071 12.7431 1.01103 20.5478C1.51103 29.3773 8.69463 35.0662 21.011 36.8773C36.4389 37.247 42.974 36.9342 46.511 34.3774ZM46.511 34.3774C31.4904 33.2713 22.7682 31.6237 5.51093 22.8773M259.011 34.2069C248.511 19.8773 247.511 13.8773 244.511 6.87737C241.511 -0.122583 237.316 0.203196 233.011 2.37737C227.563 5.12891 231.491 12.8912 235.011 17.8774C241.011 26.3774 259.011 34.2069 259.011 34.2069ZM259.011 34.2069C250.63 28.2154 245.98 24.2869 238.011 13.3774M178.511 34.2069C168.011 19.8773 168.011 16.5477 165.011 9.54777C162.011 2.54782 157.816 2.8736 153.511 5.04777C148.063 7.79932 151.991 15.5616 155.511 20.5478C161.511 29.0478 178.511 34.2069 178.511 34.2069ZM178.511 34.2069C170.13 28.2154 166.48 26.9573 158.511 16.0478M103.511 41.0479C103.511 41.0479 103.614 41.0421 103.82 41.0479H103.511ZM69.5 38.1052C69.8335 38.0493 70.1668 37.9925 70.5 37.9347M69.5 38.1052C59 52.4348 62.6033 52.1318 58.6033 59.1318C54.6033 66.1318 51.408 65.8059 47.1033 63.6318C41.6554 60.8802 45.5836 53.118 49.1033 48.1318C55.1033 39.6318 69.5 38.1052 69.5 38.1052ZM69.5 38.1052C61.1193 44.0967 60.072 41.7222 52.1033 52.6318M70.5 37.9347C70.5 37.9347 70.6033 37.9405 70.8087 37.9347H70.5ZM134.191 47.0479C134.525 46.9919 134.858 46.9351 135.191 46.8774M134.191 47.0479C123.691 61.3775 127.295 61.0744 123.295 68.0744C119.295 75.0744 116.099 74.7486 111.795 72.5744C106.347 69.8229 110.275 62.0606 113.795 57.0744C119.795 48.5744 134.191 47.0479 134.191 47.0479ZM134.191 47.0479C125.811 53.0393 124.763 50.6648 116.795 61.5744M134.191 47.0479C139.853 40.078 141.245 39.0987 142.5 39.3728M135.191 46.8774C135.191 46.8774 135.295 46.8831 135.5 46.8774H135.191ZM219.691 34.5479C220.025 34.4919 220.358 34.4351 220.691 34.3774M219.691 34.5479C209.191 48.8775 212.795 48.5744 208.795 55.5744C204.795 62.5744 201.599 62.2486 197.295 60.0744C191.847 57.3229 195.775 49.5606 199.295 44.5744C205.295 36.0744 219.691 34.5479 219.691 34.5479ZM219.691 34.5479C211.311 40.5393 210.263 38.1648 202.295 49.0744M220.691 34.3774C220.691 34.3774 220.795 34.3831 221 34.3774H220.691ZM220.691 34.3774V35M220.691 34.3774L223 31.5M96 41.0479L90 44.5898M84 48.1318L90 44.5898M84 48.1318C81.4061 48.5069 77.7857 49.8306 77 51C73.5247 54.1023 73.2752 55.8954 74 59.1318C77.942 58.9008 78.9152 57.7521 80.1143 56L84 48.1318ZM84 48.1318L77.5 53.5M90 44.5898L86.5 54M86.5 54C86.5 54 82.0949 58.1564 82.1143 61.5744C82.1303 64.3701 85.1143 68.0744 85.1143 68.0744C85.1143 68.0744 88.5781 63.4183 88.5 60C88.4436 57.5307 86.5 54 86.5 54ZM86.5 54L85.5 60.5M63 36.382L57 32.8401M51 29.2981L57 32.8401M51 29.2981C48.4061 28.923 44.7857 27.5993 44 26.4299C40.5247 23.3276 40.2752 21.5345 41 18.2982C44.942 18.5291 45.9152 19.6777 47.1143 21.4299L51 29.2981ZM51 29.2981L44.5 23.9299M57 32.8401L53.5 23.4299M53.5 23.4299C53.5 23.4299 49.0949 19.2735 49.1143 15.8555C49.1303 13.0598 52.1143 9.35549 52.1143 9.35549C52.1143 9.35549 55.5781 14.0116 55.5 17.4299C55.4436 19.8992 53.5 23.4299 53.5 23.4299ZM53.5 23.4299L52.5 16.9299M138.795 39.3728L132.795 35.8308M126.795 32.2889L132.795 35.8308M126.795 32.2889C124.201 31.9138 120.58 30.5901 119.795 29.4207C116.319 26.3183 116.07 24.5253 116.795 21.2889C120.737 21.5199 121.71 22.6685 122.909 24.4207L126.795 32.2889ZM126.795 32.2889L120.295 26.9207M132.795 35.8308L129.295 26.4207M129.295 26.4207C129.295 26.4207 124.889 22.2642 124.909 18.8462C124.925 16.0505 127.909 12.3462 127.909 12.3462C127.909 12.3462 131.373 17.0023 131.295 20.4207C131.238 22.8899 129.295 26.4207 129.295 26.4207ZM129.295 26.4207L128.295 19.9207M215.5 31.3106L209.5 27.7686M203.5 24.2266L209.5 27.7686M203.5 24.2266C200.906 23.8515 197.286 22.5278 196.5 21.3584C193.025 18.2561 192.775 16.463 193.5 13.2267C197.442 13.4576 198.415 14.6062 199.614 16.3584L203.5 24.2266ZM203.5 24.2266L197 18.8584M209.5 27.7686L206 18.3584M206 18.3584C206 18.3584 201.595 14.202 201.614 10.784C201.63 7.9883 204.614 4.284 204.614 4.284C204.614 4.284 208.078 8.94007 208 12.3584C207.944 14.8277 206 18.3584 206 18.3584ZM206 18.3584L205 11.8584M177.511 34.548L171.511 38.09M165.511 41.6319L171.511 38.09M165.511 41.6319C162.917 42.007 159.297 43.3307 158.511 44.5002C155.036 47.6025 154.786 49.3955 155.511 52.6319C159.453 52.4009 160.426 51.2523 161.625 49.5002L165.511 41.6319ZM165.511 41.6319L159.011 47.0002M171.511 38.09L168.011 47.5002M168.011 47.5002C168.011 47.5002 163.606 51.6566 163.625 55.0746C163.641 57.8703 166.625 61.5746 166.625 61.5746C166.625 61.5746 170.089 56.9185 170.011 53.5002C169.955 51.0309 168.011 47.5002 168.011 47.5002ZM168.011 47.5002L167.011 54.0002M248.011 41.4613L254.011 37.9193M248.011 41.4613C245.417 41.8364 241.797 43.1601 241.011 44.3295C237.536 47.4319 237.286 49.2249 238.011 52.4613C241.953 52.2303 242.926 51.0817 244.125 49.3295L248.011 41.4613ZM248.011 41.4613L241.511 46.8295M254.011 37.9193L250.511 47.3295M250.511 47.3295C250.511 47.3295 246.106 51.486 246.125 54.904C246.141 57.6996 249.125 61.4039 249.125 61.4039C249.125 61.4039 252.589 56.7479 252.511 53.3295C252.455 50.8603 250.511 47.3295 250.511 47.3295ZM250.511 47.3295L249.511 53.8295" stroke="#747474" stroke-linecap="round"/>
<path d="M262 59.3774C262 59.3774 271 59.8774 288 46.8774C303.179 35.2702 311.98 34.4252 313.691 34.3774M314 34.3774C314 34.3774 313.897 34.3716 313.691 34.3774M314 34.3774H313.691M314 34.3774C314.333 34.3197 314.666 34.2628 315 34.2069M314 34.3774L320 37.9193M394.5 34.3774C376.202 31.4773 344.924 29.1899 315 34.2069M394.5 34.3774C394.5 34.3774 394.397 34.3716 394.191 34.3774H394.5ZM394.5 34.3774C394.833 34.3197 395.166 34.2628 395.5 34.2069M394.5 34.3774C404.421 35.9498 417.17 37.9767 431.511 39.3728M471.5 40.8774C493.505 40.1875 527.5 34.3774 527.5 34.3774M471.5 40.8774C471.166 40.9333 470.833 40.9901 470.5 41.0479M471.5 40.8774C482 26.5478 478.397 26.8508 482.397 19.8508C486.397 12.8508 489.592 13.1767 493.897 15.3508C499.345 18.1024 495.416 25.8646 491.897 30.8508C485.897 39.3508 471.5 40.8774 471.5 40.8774ZM471.5 40.8774C479.881 34.8859 480.928 37.2604 488.897 26.3508M471.5 40.8774C457.511 41.3159 443.915 40.5803 431.511 39.3728M527.5 34.3774C543.288 26.6751 544.358 25.9864 553 21.3773C560.5 17.3773 573.442 12.7431 573 20.5478C572.5 29.3773 565.316 35.0662 553 36.8773C537.572 37.247 531.037 36.9342 527.5 34.3774ZM527.5 34.3774C542.521 33.2713 551.243 31.6237 568.5 22.8773M315 34.2069C325.5 19.8773 326.5 13.8773 329.5 6.87737C332.5 -0.122583 336.695 0.203196 341 2.37737C346.448 5.12891 342.52 12.8912 339 17.8774C333 26.3774 315 34.2069 315 34.2069ZM315 34.2069C323.381 28.2154 328.031 24.2869 336 13.3774M395.5 34.2069C406 19.8773 406 16.5477 409 9.54777C412 2.54782 416.195 2.8736 420.5 5.04777C425.948 7.79932 422.02 15.5616 418.5 20.5478C412.5 29.0478 395.5 34.2069 395.5 34.2069ZM395.5 34.2069C403.881 28.2154 407.531 26.9573 415.5 16.0478M470.5 41.0479C470.5 41.0479 470.397 41.0421 470.191 41.0479H470.5ZM504.511 38.1052C504.177 38.0493 503.844 37.9925 503.511 37.9347M504.511 38.1052C515.011 52.4348 511.408 52.1318 515.408 59.1318C519.408 66.1318 522.603 65.8059 526.908 63.6318C532.356 60.8802 528.427 53.118 524.908 48.1318C518.908 39.6318 504.511 38.1052 504.511 38.1052ZM504.511 38.1052C512.892 44.0967 513.939 41.7222 521.908 52.6318M503.511 37.9347C503.511 37.9347 503.408 37.9405 503.202 37.9347H503.511ZM439.82 47.0479C439.486 46.9919 439.153 46.9351 438.82 46.8774M439.82 47.0479C450.32 61.3775 446.716 61.0744 450.716 68.0744C454.716 75.0744 457.912 74.7486 462.216 72.5744C467.664 69.8229 463.736 62.0606 460.216 57.0744C454.216 48.5744 439.82 47.0479 439.82 47.0479ZM439.82 47.0479C448.2 53.0393 449.248 50.6648 457.216 61.5744M439.82 47.0479C434.158 40.078 432.766 39.0987 431.511 39.3728M438.82 46.8774C438.82 46.8774 438.716 46.8831 438.511 46.8774H438.82ZM354.32 34.5479C353.986 34.4919 353.653 34.4351 353.32 34.3774M354.32 34.5479C364.82 48.8775 361.216 48.5744 365.216 55.5744C369.216 62.5744 372.412 62.2486 376.716 60.0744C382.164 57.3229 378.236 49.5606 374.716 44.5744C368.716 36.0744 354.32 34.5479 354.32 34.5479ZM354.32 34.5479C362.7 40.5393 363.748 38.1648 371.716 49.0744M353.32 34.3774C353.32 34.3774 353.216 34.3831 353.011 34.3774H353.32ZM353.32 34.3774V35M353.32 34.3774L351.011 31.5M478.011 41.0479L484.011 44.5898M490.011 48.1318L484.011 44.5898M490.011 48.1318C492.605 48.5069 496.225 49.8306 497.011 51C500.486 54.1023 500.736 55.8954 500.011 59.1318C496.069 58.9008 495.096 57.7521 493.897 56L490.011 48.1318ZM490.011 48.1318L496.511 53.5M484.011 44.5898L487.511 54M487.511 54C487.511 54 491.916 58.1564 491.897 61.5744C491.881 64.3701 488.897 68.0744 488.897 68.0744C488.897 68.0744 485.433 63.4183 485.511 60C485.567 57.5307 487.511 54 487.511 54ZM487.511 54L488.511 60.5M511.011 36.382L517.011 32.8401M523.011 29.2981L517.011 32.8401M523.011 29.2981C525.605 28.923 529.225 27.5993 530.011 26.4299C533.486 23.3276 533.736 21.5345 533.011 18.2982C529.069 18.5291 528.096 19.6777 526.897 21.4299L523.011 29.2981ZM523.011 29.2981L529.511 23.9299M517.011 32.8401L520.511 23.4299M520.511 23.4299C520.511 23.4299 524.916 19.2735 524.897 15.8555C524.881 13.0598 521.897 9.35549 521.897 9.35549C521.897 9.35549 518.433 14.0116 518.511 17.4299C518.567 19.8992 520.511 23.4299 520.511 23.4299ZM520.511 23.4299L521.511 16.9299M435.216 39.3728L441.216 35.8308M447.216 32.2889L441.216 35.8308M447.216 32.2889C449.81 31.9138 453.431 30.5901 454.216 29.4207C457.692 26.3183 457.941 24.5253 457.216 21.2889C453.274 21.5199 452.301 22.6685 451.102 24.4207L447.216 32.2889ZM447.216 32.2889L453.716 26.9207M441.216 35.8308L444.716 26.4207M444.716 26.4207C444.716 26.4207 449.122 22.2642 449.102 18.8462C449.086 16.0505 446.102 12.3462 446.102 12.3462C446.102 12.3462 442.638 17.0023 442.716 20.4207C442.773 22.8899 444.716 26.4207 444.716 26.4207ZM444.716 26.4207L445.716 19.9207M358.511 31.3106L364.511 27.7686M370.511 24.2266L364.511 27.7686M370.511 24.2266C373.105 23.8515 376.725 22.5278 377.511 21.3584C380.986 18.2561 381.236 16.463 380.511 13.2267C376.569 13.4576 375.596 14.6062 374.397 16.3584L370.511 24.2266ZM370.511 24.2266L377.011 18.8584M364.511 27.7686L368.011 18.3584M368.011 18.3584C368.011 18.3584 372.416 14.202 372.397 10.784C372.381 7.9883 369.397 4.284 369.397 4.284C369.397 4.284 365.933 8.94007 366.011 12.3584C366.067 14.8277 368.011 18.3584 368.011 18.3584ZM368.011 18.3584L369.011 11.8584M396.5 34.548L402.5 38.09M408.5 41.6319L402.5 38.09M408.5 41.6319C411.094 42.007 414.714 43.3307 415.5 44.5002C418.975 47.6025 419.225 49.3955 418.5 52.6319C414.558 52.4009 413.585 51.2523 412.386 49.5002L408.5 41.6319ZM408.5 41.6319L415 47.0002M402.5 38.09L406 47.5002M406 47.5002C406 47.5002 410.405 51.6566 410.386 55.0746C410.37 57.8703 407.386 61.5746 407.386 61.5746C407.386 61.5746 403.922 56.9185 404 53.5002C404.056 51.0309 406 47.5002 406 47.5002ZM406 47.5002L407 54.0002M326 41.4613L320 37.9193M326 41.4613C328.594 41.8364 332.214 43.1601 333 44.3295C336.475 47.4319 336.725 49.2249 336 52.4613C332.058 52.2303 331.085 51.0817 329.886 49.3295L326 41.4613ZM326 41.4613L332.5 46.8295M320 37.9193L323.5 47.3295M323.5 47.3295C323.5 47.3295 327.905 51.486 327.886 54.904C327.87 57.6996 324.886 61.4039 324.886 61.4039C324.886 61.4039 321.422 56.7479 321.5 53.3295C321.556 50.8603 323.5 47.3295 323.5 47.3295ZM323.5 47.3295L324.5 53.8295" stroke="#747474" stroke-linecap="round"/>
</svg>
