<?xml version="1.0" standalone="no"?>
<!DOCTYPE svg PUBLIC "-//W3C//DTD SVG 20010904//EN"
 "http://www.w3.org/TR/2001/REC-SVG-20010904/DTD/svg10.dtd">
<svg version="1.0" xmlns="http://www.w3.org/2000/svg"
 width="512.000000pt" height="512.000000pt" viewBox="0 0 512.000000 512.000000"
 preserveAspectRatio="xMidYMid meet">
<metadata>
Created by potrace 1.16, written by Peter Selinger 2001-2019
</metadata>
<g transform="translate(0.000000,512.000000) scale(0.100000,-0.100000)"
fill="#000000" stroke="none">
<path d="M1825 5084 c-343 -36 -616 -127 -886 -294 -411 -255 -719 -675 -843
-1150 -63 -241 -79 -543 -42 -775 101 -636 485 -1163 1055 -1449 403 -203 890
-254 1341 -141 230 58 487 179 661 311 l56 43 81 -82 81 -82 -14 -41 c-34 -98
-27 -210 17 -299 13 -25 206 -226 517 -538 532 -534 535 -536 657 -558 72 -12
153 -1 223 33 62 29 300 267 329 328 47 99 50 200 10 310 -19 51 -59 94 -521
557 -332 333 -515 510 -546 526 -91 49 -203 57 -305 22 l-41 -14 -82 81 -82
81 43 56 c173 228 299 535 351 861 23 142 23 418 0 560 -34 216 -95 411 -181
581 -285 568 -818 957 -1443 1054 -103 16 -359 27 -436 19z m411 -388 c220
-40 414 -118 600 -242 592 -394 843 -1126 618 -1802 -42 -129 -126 -294 -207
-409 -79 -113 -257 -291 -370 -370 -411 -290 -927 -366 -1403 -208 -328 109
-618 331 -810 621 -364 551 -348 1254 39 1789 72 99 227 256 327 330 165 122
350 212 535 260 78 21 121 28 270 49 59 8 321 -3 401 -18z"/>
<path d="M917 3558 c-70 -140 -98 -253 -104 -428 -8 -214 28 -379 119 -550 79
-149 220 -307 351 -393 80 -53 227 -121 317 -146 225 -63 498 -45 711 46 72
31 199 103 199 113 0 3 -45 4 -100 2 -241 -10 -512 57 -725 179 -427 245 -700
697 -706 1172 -1 53 -5 97 -8 97 -4 0 -28 -42 -54 -92z"/>
</g>
</svg>
